<?xml version="1.0" standalone="no"?>
<!DOCTYPE svg PUBLIC "-//W3C//DTD SVG 20010904//EN"
 "http://www.w3.org/TR/2001/REC-SVG-20010904/DTD/svg10.dtd">
<svg version="1.0" xmlns="http://www.w3.org/2000/svg"
 width="84.000000pt" height="84.000000pt" viewBox="0 0 84.000000 84.000000"
 preserveAspectRatio="xMidYMid meet">
<metadata>
Created by potrace 1.14, written by Peter Selinger 2001-2017
</metadata>
<g transform="translate(0.000000,84.000000) scale(0.100000,-0.100000)"
fill="#000000" stroke="none">
<path d="M305 817 c-118 -40 -207 -117 -258 -225 -30 -63 -32 -74 -32 -177 0
-101 2 -115 29 -170 38 -77 124 -163 201 -201 56 -27 68 -29 175 -29 107 0
119 2 175 29 77 38 163 124 201 201 27 55 29 69 29 170 0 103 -2 114 -32 177
-41 88 -113 160 -201 201 -57 27 -80 32 -157 34 -55 2 -105 -2 -130 -10z m22
-34 c-13 -13 -19 -14 -29 -5 -9 9 -7 12 10 12 12 0 22 5 22 12 0 6 3 8 7 4 4
-3 -1 -14 -10 -23z m243 -27 c0 -8 6 -17 13 -19 6 -3 2 -6 -10 -6 -24 -1 -31
-15 -13 -26 6 -3 10 -12 10 -18 0 -7 -7 -4 -15 6 -10 14 -20 17 -37 11 -20 -6
-21 -5 -10 9 8 9 11 21 7 26 -3 7 0 8 9 5 9 -4 18 1 22 10 8 20 24 21 24 2z
m-255 -27 c-4 -5 -2 -9 4 -9 5 0 11 6 13 14 3 12 5 12 16 0 11 -12 10 -14 -3
-14 -9 0 -14 -4 -11 -9 4 -5 -3 -7 -14 -4 -11 3 -20 14 -20 25 0 10 5 16 10
13 6 -4 8 -11 5 -16z m221 -58 c22 -10 58 -36 80 -57 21 -22 41 -39 45 -39 4
0 11 -4 16 -9 5 -5 2 -6 -6 -1 -9 5 -12 4 -8 -6 3 -8 13 -38 22 -68 50 -159
-68 -330 -239 -348 -181 -18 -336 155 -297 331 39 176 223 269 387 197z m-370
-18 c0 -11 6 -17 17 -17 23 2 22 -9 -3 -31 -20 -18 -20 -17 -20 8 0 15 -4 27
-10 27 -5 0 -7 7 -4 15 8 21 22 19 20 -2z m-46 -23 c0 -5 -4 -10 -10 -10 -5 0
-10 5 -10 10 0 6 5 10 10 10 6 0 10 -4 10 -10z m624 4 c9 -3 13 -10 10 -15 -3
-5 1 -9 8 -9 9 0 9 -3 2 -8 -6 -4 -14 -14 -17 -22 -4 -12 -6 -11 -6 3 -1 22
-17 22 -30 0 -5 -10 -13 -14 -18 -10 -4 5 0 13 10 18 9 6 15 14 12 20 -4 5 -3
14 0 19 7 12 8 12 29 4z m-614 -34 c0 -5 -5 -10 -11 -10 -5 0 -7 5 -4 10 3 6
8 10 11 10 2 0 4 -4 4 -10z m17 -32 c-3 -8 -6 -5 -6 6 -1 11 2 17 5 13 3 -3 4
-12 1 -19z m-37 -212 c0 -2 -9 -6 -20 -9 -11 -3 -18 -1 -14 4 5 9 34 13 34 5z
m680 -21 c0 -1 -12 -2 -26 -2 -17 0 -22 2 -13 7 10 7 39 3 39 -5z m-670 -19
c0 -2 -9 -6 -20 -9 -11 -3 -18 -1 -14 4 5 9 34 13 34 5z m630 -26 c8 -5 11
-10 5 -10 -5 0 -17 5 -25 10 -8 5 -10 10 -5 10 6 0 17 -5 25 -10z m-622 -30
c-7 -10 -14 -17 -17 -15 -4 4 18 35 25 35 2 0 -1 -9 -8 -20z m612 -26 c0 -2
-9 0 -20 6 -11 6 -20 13 -20 16 0 2 9 0 20 -6 11 -6 20 -13 20 -16z m-583 -31
c-3 -10 -5 -4 -5 12 0 17 2 24 5 18 2 -7 2 -21 0 -30z m540 1 c-3 -3 -12 -4
-19 -1 -8 3 -5 6 6 6 11 1 17 -2 13 -5z m-46 -51 c13 -16 12 -17 -3 -4 -17 13
-22 21 -14 21 2 0 10 -8 17 -17z m-441 -3 c0 -5 -5 -10 -11 -10 -5 0 -7 5 -4
10 3 6 8 10 11 10 2 0 4 -4 4 -10z m37 -32 c-3 -8 -6 -5 -6 6 -1 11 2 17 5 13
3 -3 4 -12 1 -19z m361 -3 c-3 -3 -9 2 -12 12 -6 14 -5 15 5 6 7 -7 10 -15 7
-18z m-315 -5 c-3 -11 -7 -20 -9 -20 -2 0 -4 9 -4 20 0 11 4 20 9 20 5 0 7 -9
4 -20z m267 -5 c7 -8 8 -15 2 -15 -5 0 -15 7 -22 15 -7 8 -8 15 -2 15 5 0 15
-7 22 -15z m-42 -26 c-3 -8 -7 -3 -11 10 -4 17 -3 21 5 13 5 -5 8 -16 6 -23z
m-48 6 c19 -22 8 -25 -12 -3 -10 10 -14 18 -9 18 5 0 14 -7 21 -15z"/>
<path d="M366 622 c-2 -4 -1 -14 5 -22 7 -12 9 -10 9 8 0 23 -5 28 -14 14z"/>
<path d="M390 607 c0 -21 5 -23 45 -23 24 -1 42 3 39 7 -2 4 0 10 6 14 6 4 8
10 5 15 -7 11 -55 7 -75 -5 -9 -5 -11 -4 -6 3 4 7 2 12 -3 12 -6 0 -11 -10
-11 -23z m55 3 c3 -5 1 -10 -4 -10 -6 0 -11 5 -11 10 0 6 2 10 4 10 3 0 8 -4
11 -10z m35 6 c0 -3 -4 -8 -10 -11 -5 -3 -10 -1 -10 4 0 6 5 11 10 11 6 0 10
-2 10 -4z"/>
<path d="M232 448 c3 -76 11 -136 20 -158 15 -36 85 -106 96 -95 3 3 -4 12
-16 21 -33 23 -52 67 -52 122 0 39 6 58 31 91 17 24 33 40 36 38 3 -3 -8 -23
-23 -43 -24 -31 -29 -47 -29 -95 0 -53 3 -61 35 -94 40 -41 104 -65 122 -47 9
9 6 12 -12 12 -35 0 -86 34 -105 69 -20 40 -19 97 4 135 12 21 19 53 20 99 l1
67 -66 0 -67 0 5 -122z m69 18 c-28 -30 -51 -63 -51 -72 0 -10 -3 -14 -6 -11
-13 13 20 69 59 102 58 50 58 43 -2 -19z"/>
<path d="M480 455 c0 -103 -2 -117 -21 -136 -14 -14 -28 -19 -45 -15 -33 9
-30 -7 7 -38 53 -45 151 -29 177 29 7 16 12 75 12 150 l0 125 -65 0 -65 0 0
-115z"/>
<path d="M341 354 c0 -11 3 -14 6 -6 3 7 2 16 -1 19 -3 4 -6 -2 -5 -13z"/>
</g>
</svg>
